<mxfile host="app.diagrams.net" agent="Mozilla/5.0 (Macintosh; Intel Mac OS X 10_15_7) AppleWebKit/537.36 (KHTML, like Gecko) Chrome/120.0.0.0 Safari/537.36" version="24.7.7">
  <diagram name="第 1 页" id="2kuI5vqeoujSwtPeEiwz">
    <mxGraphModel dx="954" dy="534" grid="1" gridSize="10" guides="1" tooltips="1" connect="1" arrows="1" fold="1" page="1" pageScale="1" pageWidth="827" pageHeight="1169" background="#000000" math="0" shadow="0">
      <root>
        <mxCell id="0" />
        <mxCell id="1" parent="0" />
        <mxCell id="egfz6zBa7lYmq5XDyndJ-17" value="" style="verticalLabelPosition=bottom;verticalAlign=top;html=1;shape=hexagon;perimeter=hexagonPerimeter2;arcSize=6;size=0.27;fillColor=#FF0000;" parent="1" vertex="1">
          <mxGeometry x="366" y="284.02" width="130" height="111.43" as="geometry" />
        </mxCell>
        <mxCell id="egfz6zBa7lYmq5XDyndJ-18" value="&lt;span style=&quot;font-size: 18px;&quot;&gt;&lt;font color=&quot;#ffffff&quot;&gt;交警&lt;br&gt;中控&lt;/font&gt;&lt;/span&gt;" style="text;html=1;align=center;verticalAlign=middle;whiteSpace=wrap;rounded=0;" parent="1" vertex="1">
          <mxGeometry x="401" y="324.73" width="60" height="30" as="geometry" />
        </mxCell>
        <mxCell id="4nbJ3aGZmeE5FgvbP_K_-15" style="edgeStyle=orthogonalEdgeStyle;rounded=0;orthogonalLoop=1;jettySize=auto;html=1;exitX=1;exitY=0.5;exitDx=0;exitDy=0;entryX=0;entryY=0.5;entryDx=0;entryDy=0;curved=1;dashed=1;strokeColor=#FFFFFF;" edge="1" parent="1" source="4nbJ3aGZmeE5FgvbP_K_-1" target="egfz6zBa7lYmq5XDyndJ-17">
          <mxGeometry relative="1" as="geometry" />
        </mxCell>
        <mxCell id="4nbJ3aGZmeE5FgvbP_K_-1" value="" style="verticalLabelPosition=bottom;verticalAlign=top;html=1;shape=hexagon;perimeter=hexagonPerimeter2;arcSize=6;size=0.27;fillColor=#FFFFFF;" vertex="1" parent="1">
          <mxGeometry x="81" y="110" width="130" height="111.43" as="geometry" />
        </mxCell>
        <mxCell id="4nbJ3aGZmeE5FgvbP_K_-2" value="&lt;font style=&quot;font-size: 18px;&quot;&gt;信号灯&lt;br&gt;系统&lt;/font&gt;" style="text;html=1;align=center;verticalAlign=middle;whiteSpace=wrap;rounded=0;" vertex="1" parent="1">
          <mxGeometry x="108.5" y="150.72" width="75" height="30" as="geometry" />
        </mxCell>
        <mxCell id="4nbJ3aGZmeE5FgvbP_K_-16" style="edgeStyle=orthogonalEdgeStyle;rounded=0;orthogonalLoop=1;jettySize=auto;html=1;exitX=1;exitY=0.5;exitDx=0;exitDy=0;entryX=0;entryY=0.5;entryDx=0;entryDy=0;dashed=1;strokeColor=#FFFFFF;" edge="1" parent="1" source="4nbJ3aGZmeE5FgvbP_K_-5" target="egfz6zBa7lYmq5XDyndJ-17">
          <mxGeometry relative="1" as="geometry" />
        </mxCell>
        <mxCell id="4nbJ3aGZmeE5FgvbP_K_-5" value="" style="verticalLabelPosition=bottom;verticalAlign=top;html=1;shape=hexagon;perimeter=hexagonPerimeter2;arcSize=6;size=0.27;fillColor=#FFFFFF;" vertex="1" parent="1">
          <mxGeometry x="77" y="284.02" width="130" height="111.43" as="geometry" />
        </mxCell>
        <mxCell id="4nbJ3aGZmeE5FgvbP_K_-6" value="&lt;span style=&quot;font-size: 18px;&quot;&gt;车流量&lt;br&gt;监测&lt;br&gt;系统&lt;/span&gt;" style="text;html=1;align=center;verticalAlign=middle;whiteSpace=wrap;rounded=0;" vertex="1" parent="1">
          <mxGeometry x="104.5" y="324.74" width="75" height="30" as="geometry" />
        </mxCell>
        <mxCell id="4nbJ3aGZmeE5FgvbP_K_-17" style="edgeStyle=orthogonalEdgeStyle;rounded=0;orthogonalLoop=1;jettySize=auto;html=1;exitX=1;exitY=0.5;exitDx=0;exitDy=0;entryX=0;entryY=0.5;entryDx=0;entryDy=0;curved=1;dashed=1;strokeColor=#FFFFFF;" edge="1" parent="1" source="4nbJ3aGZmeE5FgvbP_K_-7" target="egfz6zBa7lYmq5XDyndJ-17">
          <mxGeometry relative="1" as="geometry" />
        </mxCell>
        <mxCell id="4nbJ3aGZmeE5FgvbP_K_-7" value="" style="verticalLabelPosition=bottom;verticalAlign=top;html=1;shape=hexagon;perimeter=hexagonPerimeter2;arcSize=6;size=0.27;fillColor=#FFFFFF;" vertex="1" parent="1">
          <mxGeometry x="80" y="455.57" width="130" height="111.43" as="geometry" />
        </mxCell>
        <mxCell id="4nbJ3aGZmeE5FgvbP_K_-8" value="&lt;span style=&quot;font-size: 18px;&quot;&gt;天气&lt;br&gt;分析&lt;/span&gt;" style="text;html=1;align=center;verticalAlign=middle;whiteSpace=wrap;rounded=0;" vertex="1" parent="1">
          <mxGeometry x="107.5" y="496.29" width="75" height="30" as="geometry" />
        </mxCell>
        <mxCell id="4nbJ3aGZmeE5FgvbP_K_-11" style="edgeStyle=orthogonalEdgeStyle;rounded=0;orthogonalLoop=1;jettySize=auto;html=1;exitX=0;exitY=0.5;exitDx=0;exitDy=0;entryX=1;entryY=0.5;entryDx=0;entryDy=0;dashed=1;strokeColor=#FFFFFF;" edge="1" parent="1" source="4nbJ3aGZmeE5FgvbP_K_-9" target="egfz6zBa7lYmq5XDyndJ-17">
          <mxGeometry relative="1" as="geometry" />
        </mxCell>
        <mxCell id="4nbJ3aGZmeE5FgvbP_K_-9" value="" style="verticalLabelPosition=bottom;verticalAlign=top;html=1;shape=hexagon;perimeter=hexagonPerimeter2;arcSize=6;size=0.27;fillColor=#7EA6E0;" vertex="1" parent="1">
          <mxGeometry x="720" y="284.02" width="130" height="111.43" as="geometry" />
        </mxCell>
        <mxCell id="4nbJ3aGZmeE5FgvbP_K_-10" value="&lt;font color=&quot;#ffffff&quot;&gt;&lt;span style=&quot;font-size: 18px;&quot;&gt;路况&lt;br&gt;检测&lt;br&gt;系统&lt;/span&gt;&lt;/font&gt;" style="text;html=1;align=center;verticalAlign=middle;whiteSpace=wrap;rounded=0;fillColor=#7EA6E0;" vertex="1" parent="1">
          <mxGeometry x="755" y="324.73" width="60" height="30" as="geometry" />
        </mxCell>
        <mxCell id="4nbJ3aGZmeE5FgvbP_K_-12" value="通畅" style="rounded=1;whiteSpace=wrap;html=1;fillColor=#66FF66;" vertex="1" parent="1">
          <mxGeometry x="530" y="310" width="40" height="20" as="geometry" />
        </mxCell>
        <mxCell id="4nbJ3aGZmeE5FgvbP_K_-13" value="拥堵" style="rounded=1;whiteSpace=wrap;html=1;fillColor=#FF3333;" vertex="1" parent="1">
          <mxGeometry x="590" y="310" width="40" height="20" as="geometry" />
        </mxCell>
        <mxCell id="4nbJ3aGZmeE5FgvbP_K_-14" value="通畅" style="rounded=1;whiteSpace=wrap;html=1;fillColor=#66FF66;" vertex="1" parent="1">
          <mxGeometry x="650" y="310" width="40" height="20" as="geometry" />
        </mxCell>
        <mxCell id="4nbJ3aGZmeE5FgvbP_K_-18" value="" style="ellipse;whiteSpace=wrap;html=1;aspect=fixed;fillColor=#FF3333;" vertex="1" parent="1">
          <mxGeometry x="252" y="153.72" width="20" height="20" as="geometry" />
        </mxCell>
        <mxCell id="4nbJ3aGZmeE5FgvbP_K_-23" value="" style="ellipse;whiteSpace=wrap;html=1;aspect=fixed;fillColor=#66FF66;" vertex="1" parent="1">
          <mxGeometry x="289" y="209.72" width="20" height="20" as="geometry" />
        </mxCell>
        <mxCell id="4nbJ3aGZmeE5FgvbP_K_-24" value="" style="ellipse;whiteSpace=wrap;html=1;aspect=fixed;fillColor=#FFE599;" vertex="1" parent="1">
          <mxGeometry x="300" y="280" width="20" height="20" as="geometry" />
        </mxCell>
        <mxCell id="4nbJ3aGZmeE5FgvbP_K_-25" value="" style="ellipse;whiteSpace=wrap;html=1;aspect=fixed;fillColor=#FF3333;" vertex="1" parent="1">
          <mxGeometry x="241" y="477.28999999999996" width="20" height="20" as="geometry" />
        </mxCell>
        <mxCell id="4nbJ3aGZmeE5FgvbP_K_-27" value="" style="ellipse;whiteSpace=wrap;html=1;aspect=fixed;fillColor=#66FF66;" vertex="1" parent="1">
          <mxGeometry x="261" y="420" width="20" height="20" as="geometry" />
        </mxCell>
        <mxCell id="4nbJ3aGZmeE5FgvbP_K_-28" value="" style="ellipse;whiteSpace=wrap;html=1;aspect=fixed;fillColor=#FFE599;" vertex="1" parent="1">
          <mxGeometry x="278" y="358" width="20" height="20" as="geometry" />
        </mxCell>
      </root>
    </mxGraphModel>
  </diagram>
</mxfile>
